<svg xmlns="http://www.w3.org/2000/svg" width="1200" height="630" viewBox="0 0 1200 630" role="img" aria-labelledby="title desc">
  <title id="title">SMPL Innovations</title>
  <desc id="desc">Open graph image for SMPL Innovations.</desc>
  <rect width="1200" height="630" fill="#061827"/>
  <circle cx="940" cy="130" r="260" fill="#0B65D8" opacity=".38"/>
  <circle cx="240" cy="520" r="220" fill="#64E6BD" opacity=".2"/>
  <g transform="translate(80 82)">
    <rect width="92" height="92" rx="22" fill="#F7FBFF"/>
    <path d="M25 24h30c12 0 20 9 20 22s-8 22-20 22H25V24Zm13 12v20h17c5 0 8-4 8-10s-3-10-8-10H38Z" fill="#061827"/>
  </g>
  <text x="80" y="250" fill="#F7FBFF" font-family="Inter, Arial, sans-serif" font-size="74" font-weight="800">
    SMPL Innovations
  </text>
  <text x="80" y="340" fill="#BEEBFF" font-family="Inter, Arial, sans-serif" font-size="42" font-weight="700">
    Practical automation, AI and custom digital tools.
  </text>
  <g transform="translate(80 430)" fill="none" stroke="#49D5FF" stroke-width="3">
    <rect width="260" height="78" rx="22"/>
    <rect x="292" width="260" height="78" rx="22" opacity=".7"/>
    <rect x="584" width="260" height="78" rx="22" opacity=".45"/>
  </g>
</svg>
